# xmcd
#
# Track frame offsets:
#	150
#	21113
#	47585
#	68392
#	89613
#	106460
#	125715
#	150440
#	167269
#	187119
#	204118
#	223143
#	239049
#	259359
#	276555
#	302082
#
# Disc length: 4204 seconds
#
# Revision: 1
# Processed by: cddbd v1.5.2PL0 Copyright (c) Steve Scherf et al.
# Submitted via: audiograbber 1.83.01
#
DISCID=e7106a10
DTITLE=100% Hits - 100% Hits - Best Ballads vol.2
DYEAR=1900
DGENRE=
TTITLE0=Celine Dion - My Heart Will Go On
TTITLE1=Madonna - Frozen
TTITLE2=Sheryl Crow - Tomorrow Never Dies
TTITLE3=Joe Cocker - N'Oubliez Jamais
TTITLE4=Chris Rea - The Blue Cafe
TTITLE5=Toni Braxton - I Don't Want To
TTITLE6=George Michael - You Have Been Loved
TTITLE7=Bonnie - He's The King
TTITLE8=Eros Ramazzotti feat Tina Turner - Cose Della Vita - Can't Stop Thinkin
TTITLE8=g Of You
TTITLE9=Various Artist - Perfect Day
TTITLE10=Savage Garden - Truly Madly Deeply
TTITLE11=Lauren Christy - Rain
TTITLE12=Neneh Cherry - Woman
TTITLE13=Bruce Springsteen - Streets Of Philadelphia
TTITLE14=10CC - I'm Not In Love
TTITLE15=Barbara Streisand and Bryan Adams - I Finally Found Someone
EXTD=
EXTT0=
EXTT1=
EXTT2=
EXTT3=
EXTT4=
EXTT5=
EXTT6=
EXTT7=
EXTT8=
EXTT9=
EXTT10=
EXTT11=
EXTT12=
EXTT13=
EXTT14=
EXTT15=
PLAYORDER=
